<?xml version="1.0" standalone="no"?><!DOCTYPE svg PUBLIC "-//W3C//DTD SVG 1.1//EN" "http://www.w3.org/Graphics/SVG/1.1/DTD/svg11.dtd" ><svg xmlns="http://www.w3.org/2000/svg"><metadata></metadata><defs><font id="hyg3gjm 常规:Version 1.00" horiz-adv-x="2048"><font-face font-family="hyg3gjm" font-weight="400" font-stretch="normal" units-per-em="2048" panose-1="2 1 6 4 0 1 1 1 1 1" ascent="1638" descent="-409" x-height="1" bbox="25 -384 1540 1387" underline-thickness="102" underline-position="-307" unicode-range="U+0021-0079" /><missing-glyph horiz-adv-x="2048" d="M1005 1121 l-477 -1051 l-503 1051 l980 0 Z" /><glyph glyph-name="" unicode="!" d="M417 83 q-2 24 0.5 49.5 q2.5 25.5 11.5 80.5 q9 55 16.5 161.5 q7.5 106.5 11.5 177 q4 70.5 5 215 q1 144.5 1 267.5 q-1 81 -3 130 l-5 101 q-1 26 2.5 49 q3.5 23 18.5 34 q15 11 31 8 q18 -5 29.5 -29 q11.5 -24 15.5 -68.5 q4 -44.5 6 -86.5 q2 -42 2.5 -118.5 q0.5 -76.5 -2.5 -295.5 q-3 -152 -6 -219 l-14 -193 q-9 -116 -14 -155 l-13 -81 q-6 -43 -22 -63.5 q-16 -20.5 -39 -14.5 q-17 3 -24.5 19.5 q-7.5 16.5 -8.5 31.5 ZM366 -217 q2 40 21 59.5 q19 19.5 38.5 24.5 q19.5 5 29.5 6 q21 0 38 -10 q17 -10 28.5 -31 q11.5 -21 12 -45.5 q0.5 -24.5 -10.5 -46.5 q-11 -22 -27 -32.5 q-16 -10.5 -42.5 -14 q-26.5 -3.5 -54.5 14.5 q-11 6 -23 22 q-12 16 -10 53 Z" /><glyph glyph-name="" unicode="&amp;" d="M441 555 q56 -63 98.5 -108.5 q42.5 -45.5 122 -123.5 q79.5 -78 131.5 -117 l106 -83 q25 31 40.5 56.5 q15.5 25.5 30 67.5 q14.5 42 20.5 70.5 q6 28.5 22.5 44.5 q16.5 16 40 4.5 q23.5 -11.5 24.5 -49 q1 -37.5 -28 -116.5 q-29 -79 -33 -85 l-35 -57 q36 -30 64 -49.5 q28 -19.5 93 -53 q65 -33.5 92.5 -51.5 q27.5 -18 38.5 -40 q11 -22 3.5 -43 q-7.5 -21 -51 -10.5 q-43.5 10.5 -101.5 51.5 l-106 61 l-86 62 q-43 -31 -103 -68.5 q-60 -37.5 -186.5 -64 q-126.5 -26.5 -265.5 2.5 q-116 23 -184 72.5 q-68 49.5 -101 105.5 q-33 56 -40.5 150 q-7.5 94 41.5 196 q49 100 100 129 l116 74 q-65 72 -94.5 116 q-29.5 44 -69.5 133 q-40 89 -41.5 163.5 q-1.5 74.5 28.5 148.5 q33 83 90.5 137.5 q57.5 54.5 134 80 q76.5 25.5 156.5 25.5 q60 -1 146.5 -20 q86.5 -19 141 -60 q54.5 -41 93.5 -104 q39 -63 37 -153 q-3 -81 -55 -172.5 q-52 -91.5 -146.5 -162 q-94.5 -70.5 -170.5 -105.5 l-114 -55 l0 0 ZM356 508 q-79 -50 -144 -111 q-65 -61 -71.5 -151.5 q-6.5 -90.5 35.5 -154.5 q45 -72 160.5 -121 q115.5 -49 242.5 -35 q105 11 162 47 l98 56 q-150 130 -244 217.5 q-94 87.5 -141 142.5 l-98 110 l0 0 ZM390 625 q79 40 133 70.5 q54 30.5 126.5 85.5 q72.5 55 120 126.5 q47.5 71.5 47.5 149.5 q-1 101 -58 150.5 q-57 49.5 -124.5 63.5 q-67.5 14 -105.5 18 q-67 5 -132.5 -10.5 q-65.5 -15.5 -130.5 -80 q-65 -64.5 -71.5 -149 q-6.5 -84.5 34.5 -176.5 q36 -84 99 -166 q63 -82 62 -82 Z" /><glyph glyph-name="" unicode="1" d="M482 533 l22 284 q13 142 32 268 l18 118 q7 48 24 65 q17 17 37 14 q20 -3 31.5 -32.5 q11.5 -29.5 -0.5 -94.5 q-7 -35 -14.5 -106 q-7.5 -71 -29 -246.5 q-21.5 -175.5 -30.5 -305.5 q-9 -130 -7 -263 q1 -86 7 -160.5 q6 -74.5 7.5 -96.5 q1.5 -22 -14.5 -45.5 q-16 -23.5 -41 -19.5 q-20 2 -36 30 q-16 28 -17 94 l-8 251 q0 38 19 246 Z" /><glyph glyph-name="" unicode="3" d="M610 637 q41 -32 70 -59.5 q29 -27.5 62 -86 q33 -58.5 46 -102.5 q13 -44 13.5 -95.5 q0.5 -51.5 -18.5 -131.5 q-14 -55 -30 -90.5 q-16 -35.5 -42 -63 q-26 -27.5 -58 -45 q-32 -17.5 -72 -30 q-40 -12.5 -60 -11.5 q-26 0 -40 10.5 q-14 10.5 -17 28 q-3 17.5 20 37.5 q13 10 62 19 q49 9 81 31 q32 22 50.5 54 q18.5 32 26.5 76 q8 44 10 100.5 q2 56.5 -19 119.5 q-22 62 -61.5 108 q-39.5 46 -72.5 71 l-19 14 q-32 -16 -85.5 -45.5 q-53.5 -29.5 -86.5 -25.5 q-15 1 -30 8.5 q-15 7.5 -21.5 23.5 q-6.5 16 14.5 38 q4 5 11.5 9 q7.5 4 48 21 q40.5 17 85.5 44.5 q45 27.5 67.5 43.5 q22.5 16 111.5 81.5 q89 65.5 121 95 q32 29.5 68 79.5 q36 50 36.5 79 q0.5 29 -24.5 63 q-40 51 -141.5 80.5 q-101.5 29.5 -197.5 23.5 q-54 -4 -115 -20 l-102 -29 q-111 -28 -159 -49.5 q-48 -21.5 -68.5 -12 q-20.5 9.5 -29 33 q-8.5 23.5 19.5 56.5 q23 27 80.5 39.5 q57.5 12.5 147.5 38 q90 25.5 143 33 q53 7.5 103 7.5 q56 -1 127 -12 q71 -11 138 -35 q67 -24 106.5 -55.5 q39.5 -31.5 53 -56 q13.5 -24.5 14 -51 q0.5 -26.5 -7.5 -60.5 q-10 -37 -25.5 -71 q-15.5 -34 -47 -76 q-31.5 -42 -73 -83.5 q-41.5 -41.5 -81.5 -70.5 l-133 -99 l0 0 Z" /><glyph glyph-name="" unicode="a" d="M500 334 q-11 -41 -15 -61 l-14 -60 q-10 -40 -31 -119 q-21 -79 -25.5 -116.5 q-4.5 -37.5 -16.5 -49.5 q-12 -12 -40 -7 q-20 2 -27 11.5 q-7 9.5 -7.5 30 q-0.5 20.5 10.5 62.5 q2 10 21.5 96.5 q19.5 86.5 34.5 137.5 l20 71 l-308 -26 l-10 -1 q-24 -2 -42.5 15.5 q-18.5 17.5 4 42 q22.5 24.5 56.5 27.5 l323 28 q12 46 19 70 l18 69 l50 176 q21 77 49.5 188 q28.5 111 43 164.5 q14.5 53.5 31.5 103.5 q17 50 23 70.5 q6 20.5 12 31 q6 10.5 17.5 18.5 q11.5 8 26.5 8 q17 -1 28.5 -10 q11.5 -9 16.5 -20 q5 -11 5.5 -23 q0.5 -12 -1.5 -21 q-3 -12 -20 -52 l-30 -67 l713 -1050 q20 -31 2 -52 q-18 -21 -40 -9.5 q-22 11.5 -48 50.5 l-662 951 q-7 -20 -51 -162 q-44 -142 -81 -292 l-17 -69 l-17 -69 l493 43 q47 4 49.5 -38.5 q2.5 -42.5 -37.5 -45.5 l-526 -45 Z" /><glyph glyph-name="" unicode="b" d="M364 1138 q22 -142 33 -212 l33 -213 q27 -176 53.5 -317 q26.5 -141 39.5 -235.5 q13 -94.5 22 -137.5 q9 -43 11.5 -63 q2.5 -20 -6.5 -33 q-9 -13 -24.5 -15.5 q-15.5 -2.5 -29.5 8.5 q-18 12 -28.5 57.5 q-10.5 45.5 -29 159.5 q-18.5 114 -38.5 227 l-54 285 q-29 151 -70 402 l-7 42 q-26 -13 -39 -19 l-41 -19 q-57 -27 -82 -29 q-16 -2 -30 0 q-14 2 -20 7 q-6 5 -6.5 21.5 q-0.5 16.5 3.5 28.5 q4 11 15 22.5 q11 11.5 42.5 25 q31.5 13.5 109.5 54 q78 40.5 178.5 68.5 q100.5 28 181.5 40 q81 12 150 13 q75 0 196.5 -20 q121.5 -20 223.5 -94.5 q102 -74.5 150.5 -172.5 q48.5 -98 40.5 -206 q-5 -66 -31 -116.5 q-26 -50.5 -82.5 -101 q-56.5 -50.5 -74.5 -55.5 l-119 -43 q75 -32 109.5 -62.5 q34.5 -30.5 63.5 -102.5 q29 -72 32 -157.5 q3 -85.5 -36 -147.5 q-26 -39 -77 -70.5 q-51 -31.5 -156 -33.5 q-82 -2 -141 11.5 q-59 13.5 -91 27 q-32 13.5 -51.5 35.5 q-19.5 22 -16.5 41 q3 19 14.5 27.5 q11.5 8.5 33.5 6.5 q21 -3 71 -24.5 q50 -21.5 75.5 -28.5 q25.5 -7 68.5 -8 q72 -2 113.5 18 q41.5 20 66.5 53.5 q25 33.5 27.5 92 q2.5 58.5 -20.5 117.5 q-27 67 -62.5 93 q-35.5 26 -83 41 q-47.5 15 -101 20.5 q-53.5 5.5 -77.5 20 q-24 14.5 -24.5 32.5 q-0.5 18 21.5 33 q17 11 69 11.5 q52 0.5 114.5 15.5 q62.5 15 114 38 q51.5 23 96 75 q44.5 52 58 87 q13.5 35 18 80.5 q4.5 45.5 -40.5 133.5 q-49 92 -96.5 126 q-47.5 34 -97.5 58 q-50 24 -87.5 34 q-37.5 10 -106 16.5 q-68.5 6.5 -135.5 5.5 q-42 -2 -103.5 -8 q-61.5 -6 -104.5 -19 l-70 -27 l-58 -21 l0 0 Z" /><glyph glyph-name="" unicode="c" d="M545 -42 q-43 4 -128.5 37 q-85.5 33 -142 93 q-56.5 60 -106.5 143.5 q-50 83.5 -78 178.5 q-28 95 -36 209.5 q-8 114.5 -1 188.5 q7 66 27 114 q20 48 71.5 108.5 q51.5 60.5 158 127.5 q106.5 67 185.5 90.5 q79 23.5 161 36.5 q82 13 161 11 q50 -2 131 -14 q81 -12 119 -38 q38 -26 67 -70.5 q29 -44.5 23.5 -79 q-5.5 -34.5 -29.5 -43 q-24 -8.5 -46 2.5 q-21 9 -31 27 l-15 42 q-6 13 -18 26 q-12 13 -52 31.5 q-40 18.5 -129 19.5 q-48 0 -108 -5.5 q-60 -5.5 -120.5 -19.5 q-60.5 -14 -138 -45 q-77.5 -31 -140 -67 q-62.5 -36 -116.5 -105 q-54 -69 -67.5 -142 q-13.5 -73 -4.5 -187 q9 -128 26.5 -189.5 q17.5 -61.5 59 -139.5 q41.5 -78 101.5 -136 q60 -58 128.5 -84 q68.5 -26 147.5 -25 q61 0 123 17 q62 17 113.5 49 q51.5 32 95.5 79 q44 47 64.5 93 q20.5 46 32.5 55.5 q12 9.5 25 10.5 q10 0 25.5 -9 q15.5 -9 23 -23 q7.5 -14 8 -29.5 q0.5 -15.5 -8.5 -32.5 q-8 -15 -39 -47 l-78 -88 q-69 -72 -146.5 -109 q-77.5 -37 -160.5 -53 q-83 -16 -138 -10 Z" /><glyph glyph-name="" unicode="d" d="M149 1215 q26 9 64.5 22 q38.5 13 134 41 q95.5 28 153.5 32.5 q58 4.5 123 1.5 q73 -5 143 -17.5 q70 -12.5 178.5 -52.5 q108.5 -40 183.5 -93.5 q75 -53.5 126.5 -135 q51.5 -81.5 69 -129.5 q17.5 -48 37.5 -127.5 q20 -79.5 23.5 -152.5 q3.5 -73 -15.5 -142 q-20 -69 -70 -138 q-50 -69 -169.5 -130 q-119.5 -61 -223.5 -104 q-104 -43 -164 -67 q-60 -24 -130 -52.5 q-70 -28.5 -132.5 -49 q-62.5 -20.5 -153 -48 q-90.5 -27.5 -129.5 -38 q-39 -10.5 -63 -2.5 q-24 8 -32 30.5 q-8 22.5 28 50.5 q13 10 43.5 16.5 q30.5 6.5 44.5 11.5 l53 16 q-8 61 -12 93 l-55 297 l-47 287 l-78 409 q-13 67 -21.5 130 q-8.5 63 1.5 78.5 q10 15.5 27 19 q17 3.5 33 -5 q16 -8.5 17 -13.5 l12 -38 l0 0 ZM369 -7 q26 7 34 8.5 q8 1.5 29 8.5 l74 22 q54 16 161.5 54 q107.5 38 246 100 q138.5 62 207 112 q68.5 50 102.5 97 q34 47 43.5 105 q9.5 58 4.5 121 q-9 93 -36 179.5 q-27 86.5 -61.5 147 q-34.5 60.5 -84.5 101 q-50 40.5 -132 81 q-82 40.5 -170 58 q-88 17.5 -143.5 22 q-55.5 4.5 -81.5 4.5 q-68 -1 -160.5 -21.5 q-92.5 -20.5 -177.5 -60.5 l-23 -11 l-36 -17 q5 -29 7 -39.5 q2 -10.5 21 -94 q19 -83.5 54.5 -303.5 q35.5 -220 60.5 -350 l31 -163 l30 -161 l0 0 Z" /><glyph glyph-name="" unicode="e" d="M197 1045 q-59 -32 -94.5 -30.5 q-35.5 1.5 -47 20 q-11.5 18.5 0.5 46.5 q10 22 44 39 q34 17 130 41 l217 59 q117 29 307 56 q190 27 280 35 l268 17 q42 4 71.5 -2 q29.5 -6 40 -32.5 q10.5 -26.5 -17.5 -50.5 q-15 -13 -52 -13 l-102 0 q-86 -1 -242.5 -15.5 q-156.5 -14.5 -317 -40.5 q-160.5 -26 -266.5 -60 l-115 -36 q13 -93 19.5 -132 q6.5 -39 40 -211.5 q33.5 -172.5 49.5 -220.5 l30 -98 q194 41 270 53.5 q76 12.5 205 31 q129 18.5 157 23.5 l153 25 q61 9 94 6 q19 -3 34.5 -11 q15.5 -8 23.5 -26.5 q8 -18.5 -5 -37.5 q-10 -15 -33.5 -20 q-23.5 -5 -95.5 -10 q-72 -5 -184 -22 l-201 -28 q-91 -13 -160 -27 l-125 -27 l-113 -21 q23 -99 31 -124 q8 -25 34.5 -103 q26.5 -78 48 -90 q21.5 -12 116.5 18 l115 28 q5 1 88.5 27.5 q83.5 26.5 124 45.5 q40.5 19 62.5 18.5 q22 -0.5 38 -17.5 q16 -17 7 -43 q-6 -17 -35 -33.5 q-29 -16.5 -113 -41.5 q-84 -25 -115 -33.5 q-31 -8.5 -106.5 -26.5 q-75.5 -18 -135 -34.5 q-59.5 -16.5 -86.5 -4.5 q-31 12 -70.5 97.5 q-39.5 85.5 -64 150 q-24.5 64.5 -60 201.5 q-35.5 137 -71.5 301 q-36 164 -43 215 l-28 169 l0 0 Z" /><glyph glyph-name="" unicode="f" d="M294 1120 q11 -135 17 -202 l17 -203 q13 -159 21 -222 l5 -42 q28 1 43 2 l188 10 q9 0 230.5 4.5 q221.5 4.5 238.5 5.5 q56 0 95.5 -2.5 q39.5 -2.5 51.5 -10.5 q12 -8 23.5 -26 q11.5 -18 6.5 -30 q-2 -6 -13.5 -17 q-11.5 -11 -37.5 -17 q-26 -7 -91 -0.5 q-65 6.5 -139 5.5 l-139 -4 l-170 1 q-82 -1 -163 -9 l-46 -5 l-67 -7 q3 -29 7 -64 q4 -35 10.5 -130.5 q6.5 -95.5 12.5 -138.5 q6 -43 7 -63.5 q1 -20.5 -9 -32.5 q-10 -12 -25.5 -13.5 q-15.5 -1.5 -30.5 11.5 q-15 13 -23 62 q-8 49 -20.5 190 q-12.5 141 -18.5 197 l-35 288 l-41 401 l-5 43 q-28 -5 -44.5 -7 q-16.5 -2 -38.5 -1 q-32 0 -43 9 q-11 9 -13 21.5 q-2 12.5 -1 20.5 q3 14 17.5 23 q14.5 9 35.5 17 q21 8 85 19 l158 27 q211 35 313 43.5 q102 8.5 266.5 14.5 q164.5 6 299.5 1.5 q135 -4.5 182 -0.5 q47 4 69 -7.5 q22 -11.5 29.5 -37 q7.5 -25.5 -18 -44.5 q-25.5 -19 -69.5 -16 l-187 14 q-66 3 -243 0 q-208 -5 -311.5 -12.5 q-103.5 -7.5 -200.5 -27 q-97 -19.5 -159 -32.5 l-27 -6 l0 0 Z" /><glyph glyph-name="" unicode="g" d="M546 777 l117 28 q37 8 139.5 25.5 q102.5 17.5 148.5 21.5 l153 6 q70 5 88.5 -5 q18.5 -10 39 -32.5 q20.5 -22.5 44.5 -126.5 l32 -131 q17 -81 17 -152 q-1 -131 -49.5 -222.5 q-48.5 -91.5 -116 -141.5 q-67.5 -50 -149.5 -76.5 q-82 -26.5 -191 -49.5 q-109 -23 -153 -22 q-41 0 -111 16.5 q-70 16.5 -112 34 q-42 17.5 -128.5 86.5 q-86.5 69 -117.5 107 q-31 38 -81 137 q-50 99 -59 181 q-9 82 -5 156 q4 66 12.5 105.5 q8.5 39.5 28 106 q19.5 66.5 45.5 130 q26 63.5 83.5 136.5 q57.5 73 117.5 107 q60 34 101 50.5 q41 16.5 106 33 q65 16.5 111 20.5 q46 4 132 3 q72 -2 143 -11 q71 -9 211.5 -79 q140.5 -70 186.5 -126.5 q46 -56.5 65.5 -91 q19.5 -34.5 29 -55 q9.5 -20.5 4.5 -42 q-5 -21.5 -25 -30 q-20 -8.5 -51 18.5 q-10 8 -52.5 76 q-42.5 68 -149 130.5 q-106.5 62.5 -185 88.5 q-78.5 26 -187.5 29 q-74 1 -131 -9 q-57 -10 -143 -41 q-86 -31 -140.5 -66.5 q-54.5 -35.5 -106 -114.5 q-51.5 -79 -78.5 -163.5 q-27 -84.5 -32.5 -183 q-5.5 -98.5 2.5 -153.5 q8 -65 36.5 -137.5 q28.5 -72.5 104 -165.5 q75.5 -93 171 -138.5 q95.5 -45.5 221.5 -43.5 q37 0 112.5 10 q75.5 10 159 37.5 q83.5 27.5 141 67.5 q57.5 40 87 97 q29.5 57 34 118.5 q4.5 61.5 -1.5 131.5 q-8 76 -20.5 130.5 q-12.5 54.5 -33 102.5 q-20.5 48 -41 60.5 q-20.5 12.5 -77.5 10.5 q-106 -5 -137.5 -9 q-31.5 -4 -115.5 -21 q-84 -17 -122 -28 q-38 -11 -90 -35.5 q-52 -24.5 -78 -19.5 q-26 4 -33 16.5 q-7 12.5 -7.5 30 q-0.5 17.5 7.5 32 q8 14.5 18 23 q10 8.5 61 21.5 Z" /><glyph glyph-name="" unicode="h" d="M316 473 q-20 4 -33.5 7 q-13.5 3 -32.5 8 l-76 15 q-27 5 -51.5 11.5 q-24.5 6.5 -45 19 q-20.5 12.5 -23.5 34 q-3 21.5 14.5 36.5 q17.5 15 56.5 14 q58 -3 116 -18 l29 -8 l27 -7 q-10 52 -21.5 119 q-11.5 67 -55.5 376 l-17 118 q-3 19 1.5 33 q4.5 14 30.5 21 q26 7 45 -6.5 q19 -13.5 21 -23.5 l17 -125 l50 -370 l18 -124 l6 -42 q49 -13 87.5 -22 q38.5 -9 95 -21.5 q56.5 -12.5 158.5 -28.5 q102 -16 189 -22 l163 -10 q55 -6 77.5 -4.5 q22.5 1.5 48.5 -4 q26 -5.5 26.5 -41.5 q0.5 -36 -22.5 -43 q-23 -7 -42.5 -5.5 q-19.5 1.5 -98 4 q-78.5 2.5 -165.5 11 q-87 8.5 -177.5 21 q-90.5 12.5 -180 27 q-89.5 14.5 -107.5 19.5 l-34 8 q3 -29 6 -43 l23 -158 q20 -150 29.5 -199 q9.5 -49 11.5 -74 q2 -25 -6.5 -37.5 q-8.5 -12.5 -24 -14.5 q-15.5 -2 -31 10.5 q-15.5 12.5 -26.5 65 q-11 52.5 -32 198.5 q-21 146 -27 181 l-9 48 l-8 47 l0 0 ZM1285 479 q0 12 4 65 l10 125 l16 356 q8 131 6.5 175.5 q-1.5 44.5 6 73.5 q7.5 29 30 37 q22.5 8 40.5 -10 q18 -18 22.5 -49.5 q4.5 -31.5 -9.5 -149.5 l-10 -241 l-14 -192 q-6 -79 -11 -224.5 q-5 -145.5 -8.5 -220 q-3.5 -74.5 0 -149.5 q3.5 -75 -19.5 -85 q-23 -10 -38.5 -5.5 q-15.5 4.5 -24.5 16.5 q-13 17 -7 62 q6 45 4.5 100.5 q-1.5 55.5 2.5 202.5 l0 113 l0 0 Z" /><glyph glyph-name="" unicode="i" d="M264 1214 l-40 2 l-54 0 l-63 -4 l-58 37 l18 43 l21 9 l86 7 l85 -2 l80 -5 l79 -12 l61 -12 l51 -17 l13 -32 l4 -19 l-14 -11 l-19 -12 l-43 4 l-56 11 l-71 11 l4 -12 l1 -4 l6 -71 l19 -238 l31 -298 l22 -259 q6 -62 15 -136 q9 -74 10 -81 l3 -44 q26 6 39 9 l61 11 q40 8 53 3 q5 -3 20 -20 q15 -17 15 -21 q-1 -4 -8 -15 l-13 -19 q-9 -9 -38 -12 q-29 -3 -68 -11.5 q-39 -8.5 -69 -18 q-30 -9.5 -85.5 -30.5 q-55.5 -21 -87.5 -37.5 q-32 -16.5 -61.5 -24.5 q-29.5 -8 -45 16.5 q-15.5 24.5 0.5 50.5 q4 7 19.5 19.5 q15.5 12.5 72.5 33.5 l80 31 l36 13 q-5 23 -10.5 53.5 q-5.5 30.5 -15.5 154 q-10 123.5 -24 256.5 l-36 316 l-32 312 l-4 39 l3 15 l7 21 l0 0 Z" /><glyph glyph-name="" unicode="j" d="M750 1179 q-51 -3 -85.5 -5.5 q-34.5 -2.5 -76 -15.5 q-41.5 -13 -69 -16 q-27.5 -3 -38.5 23.5 q-11 26.5 8 49.5 q6 7 25 17.5 q19 10.5 92 24 q73 13.5 219 31 q146 17.5 248 17 q102 -0.5 131.5 1.5 q29.5 2 41.5 -5 q4 -3 16.5 -22.5 q12.5 -19.5 12.5 -23.5 q-1 -3 -11 -13 l-16 -17 q-11 -8 -40.5 -6.5 q-29.5 1.5 -60.5 0.5 l-107 -6 q-115 -7 -120 -7 l-70 -8 q2 -39 4.5 -68.5 q2.5 -29.5 21.5 -170.5 q19 -141 31.5 -281 q12.5 -140 18.5 -267.5 q6 -127.5 0 -226.5 q-6 -86 -28 -130 q-22 -44 -63 -73.5 q-41 -29.5 -122.5 -48.5 q-81.5 -19 -120 -22 q-38.5 -3 -97.5 -2 q-53 0 -107 5 q-54 5 -113 31.5 q-59 26.5 -115.5 63 q-56.5 36.5 -83 86.5 q-26.5 50 -28 81 q-1.5 31 4 40.5 q5.5 9.5 20 16 q14.5 6.5 36.5 -7.5 q12 -9 26 -34.5 q14 -25.5 44 -72 q30 -46.5 77.5 -72.5 q47.5 -26 102.5 -37 q55 -11 128 -12 q95 -3 177.5 11.5 q82.5 14.5 118.5 46.5 q36 32 50 103.5 q14 71.5 10 206.5 q-6 144 -7.5 164.5 q-1.5 20.5 -20.5 220 q-19 199.5 -21 211.5 l-44 219 l0 0 Z" /><glyph glyph-name="" unicode="k" d="M334 807 q-4 30 -6 48.5 q-2 18.5 -4 44.5 l-32 313 l-4 39 q-2 15 7.5 34.5 q9.5 19.5 33 23 q23.5 3.5 37.5 -12 q14 -15.5 16 -27.5 l6 -72 q18 -225 20 -238 l5 -51 l5 -51 q34 20 62 35.5 q28 15.5 118.5 64 q90.5 48.5 145.5 74.5 q55 26 144 63 l183 75 q93 38 148.5 59.5 q55.5 21.5 99.5 43.5 q44 22 70 18 q5 -2 13.5 -5.5 q8.5 -3.5 17.5 -20 q9 -16.5 8 -29.5 q-2 -17 -12 -25.5 q-10 -8.5 -30 -15 q-20 -6.5 -51.5 -18.5 q-31.5 -12 -183 -71.5 q-151.5 -59.5 -220.5 -88.5 l-152 -67 l-66 -29 q7 -21 17.5 -49.5 q10.5 -28.5 64.5 -137.5 q54 -109 101.5 -196.5 q47.5 -87.5 130.5 -207 q83 -119.5 157 -187 q74 -67.5 89.5 -84.5 q15.5 -17 18 -35 q2.5 -18 -10 -34.5 q-12.5 -16.5 -38.5 -14.5 q-25 1 -64 43 l-56 60 q-63 67 -104 119.5 q-41 52.5 -96 132.5 q-55 80 -73.5 110.5 q-18.5 30.5 -67 123.5 q-48.5 93 -88.5 164 q-40 71 -41 74 l-35 68 q-70 -43 -107.5 -66.5 q-37.5 -23.5 -45.5 -27.5 l-36 -21 q3 -31 5 -49 q2 -18 14 -131 q12 -113 30 -303.5 q18 -190.5 26 -245.5 q8 -55 7.5 -92 q-0.5 -37 -19.5 -48 q-19 -11 -40 1.5 q-21 12.5 -26 62.5 q-5 50 -24.5 215.5 q-19.5 165.5 -33.5 318 q-14 152.5 -15 161.5 l-7 60 l-59 -35 q-22 -13 -32 -20 l-83 -62 q-21 -14 -48.5 -29 q-27.5 -15 -41.5 -14 q-14 0 -32 13.5 q-18 13.5 1 56.5 q8 17 45 41 l88 61 l62 37 l34 22 l54 31 Z" /><glyph glyph-name="" unicode="l" d="M79 784 q-6 81 -7 122 l-4 120 q-3 48 -7 105 l-10 112 q-2 30 8.5 53.5 q10.5 23.5 49 20.5 q38.5 -3 46.5 -49 q1 -7 -0.5 -25 q-1.5 -18 2.5 -113 l2 -114 l8 -138 l2 -89 l18 -183 l11 -131 q7 -83 21.5 -161.5 q14.5 -78.5 28 -131 q13.5 -52.5 35.5 -109.5 q22 -57 45 -69 q23 -12 57 -12 q46 -1 167 27 l192 46 q40 12 104.5 37.5 q64.5 25.5 99.5 22.5 q13 -2 26 -7 q13 -5 22.5 -14.5 q9.5 -9.5 10.5 -30.5 q1 -21 -37 -41 q-14 -7 -46 -14 l-174 -49 q-60 -17 -146 -33.5 q-86 -16.5 -152 -25 q-66 -8.5 -97 -10.5 q-44 -5 -68 4.5 q-24 9.5 -49 50 q-25 40.5 -38.5 79.5 q-13.5 39 -34.5 130.5 q-21 91.5 -30.5 143 q-9.5 51.5 -22.5 164.5 q-13 113 -13 116 l-20 196 l0 0 Z" /><glyph glyph-name="" unicode="m" d="M1319 1057 q-91 -62 -159 -107.5 q-68 -45.5 -140.5 -90.5 q-72.5 -45 -186 -111 q-113.5 -66 -193 -105 q-79.5 -39 -121.5 -30 q-42 8 -90 61 q-48 53 -101 119.5 q-53 66.5 -85 109.5 q-32 43 -36 51 l-35 55 q3 -43 5 -63 l30 -298 l23 -258 q9 -111 18 -171.5 q9 -60.5 8.5 -97.5 q-0.5 -37 -20 -47.5 q-19.5 -10.5 -41.5 3.5 q-20 11 -24 65 l-18 162 l-25 267 l-36 316 l-32 313 l-4 39 q-1 15 4 26.5 q5 11.5 17.5 23.5 q12.5 12 33.5 16.5 q21 4.5 43 -19.5 q10 -12 15 -35 l9 -60 q7 -37 37.5 -89 q30.5 -52 84.5 -119 l115 -146 q74 -102 118 -108 q32 -6 100.5 24.5 q68.5 30.5 149.5 73.5 q81 43 140.5 78 q59.5 35 92.5 57.5 q33 22.5 123.5 87 q90.5 64.5 128.5 95.5 q38 31 63 40 q25 9 49 2 q24 -7 31.5 -27 q7.5 -20 1.5 -60 q-6 -32 -7 -72 q-1 -40 -1.5 -50.5 q-0.5 -10.5 -4.5 -97.5 l-5 -102 l-19 -316 l-11 -268 l-10 -163 q-3 -54 -22.5 -67 q-19.5 -13 -39.5 -3.5 q-20 9.5 -23 46.5 q-3 37 3 95 q5 68 10 174 l9 259 l15 299 l2 57 l10 166 l0 0 Z" /><glyph glyph-name="" unicode="n" d="M332 1145 l831 -1036 l-17 145 l-34 334 l-44 351 l-25 163 q-6 49 -9 63.5 q-3 14.5 -12.5 43.5 q-9.5 29 -7.5 42 q1 12 8.5 24.5 q7.5 12.5 20.5 19 q13 6.5 34 3.5 q17 -4 27 -13 q10 -9 15 -24 q5 -15 10 -44 l10 -67 q10 -71 17.5 -141.5 q7.5 -70.5 14 -141 q6.5 -70.5 8.5 -89.5 l23 -195 l26 -257 q14 -128 17 -185.5 q3 -57.5 8 -92 q5 -34.5 -5.5 -58.5 q-10.5 -24 -39.5 -27 q-47 -6 -45 19 l-7 48 q-16 -6 -25 -5.5 q-9 0.5 -20 8.5 q-11 8 -40 45 l-769 956 q-7 -26 -12 -51 q-5 -25 -34 -195.5 q-29 -170.5 -38 -243.5 l-37 -312 l-21 -148 l-13 -112 q-5 -39 -17.5 -48.5 q-12.5 -9.5 -37 -6.5 q-24.5 3 -35.5 22 q-11 19 -4 65 q7 45 18.5 121 q11.5 76 21.5 150 l33 249 l29 194 l9 77 q5 45 19.5 145 q14.5 100 25.5 151.5 q11 51.5 14 73.5 q3 22 8 35 q5 13 16 22 q11 9 28 12 q18 2 31.5 -5.5 q13.5 -7.5 23.5 -21.5 q10 -14 8 -22 l-6 -40 l0 0 Z" /><glyph glyph-name="" unicode="o" d="M1305 683 q-3 99 -43 181 q-40 82 -114 146.5 q-74 64.5 -173 109 q-99 44.5 -150 56 q-51 11.5 -95.5 15 q-44.5 3.5 -80.5 4.5 q-51 0 -123 -9 q-72 -9 -139 -48 q-67 -39 -119 -101 q-52 -62 -80 -133.5 q-28 -71.5 -35.5 -149.5 q-7.5 -78 -8 -109 q-0.5 -31 3.5 -62 q11 -105 78.5 -229 q67.5 -124 141.5 -182.5 q74 -58.5 126.5 -81 q52.5 -22.5 114 -37.5 q61.5 -15 113 -22 q51.5 -7 94 -1 q42.5 6 57.5 -3 q15 -9 18 -33.5 q3 -24.5 -24 -44.5 q-18 -14 -49 -18 q-31 -4 -57 -3 q-59 0 -165.5 20.5 q-106.5 20.5 -168 55 q-61.5 34.5 -148 115 q-86.5 80.5 -126.5 151.5 q-40 71 -70.5 155 q-30.5 84 -30.5 164.5 q0 80.5 3 123.5 q8 117 43.5 211 q35.5 94 111 174.5 q75.5 80.5 116.5 109.5 q41 29 92 48.5 q51 19.5 88.5 28 q37.5 8.5 70.5 11.5 q55 4 130.5 -3.5 q75.5 -7.5 143.5 -22.5 q68 -15 136 -47.5 q68 -32.5 155 -86.5 q87 -54 132.5 -105.5 q45.5 -51.5 81 -140 q35.5 -88.5 41 -161.5 q5.5 -73 -2.5 -133 q-19 -125 -70.5 -211 q-51.5 -86 -81.5 -121.5 q-30 -35.5 -73.5 -76 q-43.5 -40.5 -76.5 -58.5 q-33 -18 -94 -42 q-61 -24 -89 -17.5 q-28 6.5 -40.5 30 q-12.5 23.5 5.5 51.5 q7 12 69 28 q62 16 117 56 q55 40 98.5 85.5 q43.5 45.5 77 103.5 q33.5 58 52 129.5 q18.5 71.5 17.5 129.5 Z" /><glyph glyph-name="" unicode="p" d="M288 265 q-38 202 -60 303 l-62 268 l-39 208 l-33 158 q-11 53 -15 72.5 q-4 19.5 -4.5 32 q-0.5 12.5 4 25 q4.5 12.5 21 18 q16.5 5.5 36.5 4.5 q16 -2 20.5 -5.5 q4.5 -3.5 11.5 -30.5 l13 -64 q34 7 80.5 16.5 q46.5 9.5 127.5 17 q81 7.5 251 -1.5 q138 -8 246.5 -32.5 q108.5 -24.5 254 -124 q145.5 -99.5 170 -170.5 q24.5 -71 22.5 -155 q-2 -48 -8 -89 q-6 -41 -26.5 -92 q-20.5 -51 -77.5 -110 q-57 -59 -180.5 -141 q-123.5 -82 -224.5 -114 q-101 -32 -174.5 -51 q-73.5 -19 -115.5 -23 l-126 -16 q12 -76 20 -113 l15 -70 q16 -84 27.5 -115.5 q11.5 -31.5 9.5 -48.5 q-2 -17 -19.5 -28.5 q-17.5 -11.5 -30.5 -6.5 q-13 5 -24.5 13.5 q-11.5 8.5 -23.5 66.5 l-37 134 l-22 114 l-11 57 q-73 4 -103 10.5 q-30 6.5 -80 23 q-50 16.5 -59.5 36.5 q-9.5 20 -9 36.5 q0.5 16.5 14 29.5 q13.5 13 53.5 6 l70 -24 q17 -7 49 -13 l49 -11 l0 0 ZM377 268 q50 0 103 3.5 q53 3.5 137.5 27.5 q84.5 24 156 49.5 q71.5 25.5 131.5 59.5 q60 34 120 78 q60 44 97.5 81 q37.5 37 64.5 83.5 q27 46.5 38 84 q11 37.5 13.5 75 q2.5 37.5 -16.5 89.5 q-36 91 -150.5 170.5 q-114.5 79.5 -232.5 101.5 q-118 22 -194 26 q-76 4 -140 4 q-75 -1 -135 -8 q-60 -7 -111 -24 l-62 -20 q30 -144 45 -216 l24 -122 q3 -20 29 -141 q26 -121 52 -250 l30 -152 l0 0 Z" /><glyph glyph-name="" unicode="q" d="M999 96 q-16 20 -25 29 q-9 9 -31 25 q-22 16 -26 20 l-40 27 q-20 15 -23.5 32.5 q-3.5 17.5 15.5 36 q19 18.5 53 9.5 q16 -5 61 -42.5 q45 -37.5 51 -43.5 l37 -40 q49 55 82.5 104 q33.5 49 59.5 134.5 q26 85.5 42 193 q16 107.5 13 188.5 q-6 118 -48 206 q-42 88 -105.5 140.5 q-63.5 52.5 -146.5 71.5 q-83 19 -194 15 q-87 -4 -135.5 -14 q-48.5 -10 -84.5 -22.5 q-36 -12.5 -55.5 -9.5 q-19.5 3 -32.5 28 q-13 25 29 63 q18 16 75 30.5 q57 14.5 93 19 q36 4.5 114 3.5 q125 -3 190.5 -14.5 q65.5 -11.5 142.5 -48 q77 -36.5 136.5 -118 q59.5 -81.5 86 -186.5 q26.5 -105 27 -156.5 q0.5 -51.5 -7.5 -151.5 q-10 -119 -21 -165.5 q-11 -46.5 -46.5 -130 q-35.5 -83.5 -57 -116.5 q-21.5 -33 -39.5 -53 l-70 -80 q34 -48 79.5 -125.5 q45.5 -77.5 66.5 -99 q21 -21.5 24.5 -47.5 q3.5 -26 -24 -37.5 q-27.5 -11.5 -49 6 q-21.5 17.5 -43 67 q-21.5 49.5 -84.5 130.5 l-37 46 q-90 -46 -151 -68 q-61 -22 -152 -33 q-91 -11 -166 -14 q-75 -4 -144 5.5 q-69 9.5 -159 67 q-90 57.5 -160 175 q-70 117.5 -66 309.5 q1 70 17 146.5 q16 76.5 47 146 q31 69.5 78.5 133 q47.5 63.5 86.5 97.5 q39 34 89 65.5 q50 31.5 77 34 q27 2.5 41.5 -9 q14.5 -11.5 16 -26 q1.5 -14.5 -5.5 -27.5 q-10 -17 -64 -49.5 q-54 -32.5 -85 -54 q-31 -21.5 -71.5 -62 q-40.5 -40.5 -70.5 -107 q-30 -66.5 -50.5 -145.5 q-20.5 -79 -21 -188 q-0.5 -109 63.5 -226 q51 -95 121.5 -139.5 q70.5 -44.5 128 -51.5 q57.5 -7 109.5 -6 q82 0 183 12 q101 12 146 37 l110 54 l0 0 Z" /><glyph glyph-name="" unicode="r" d="M518 179 q2 -30 6.5 -76.5 q4.5 -46.5 12.5 -101 q8 -54.5 7.5 -91.5 q-0.5 -37 -20.5 -48 q-20 -11 -41 3 q-20 11 -24 60 q-4 49 -12.5 118 q-8.5 69 -11.5 99 l-5 43 l-33 3 q-42 3 -74 8.5 q-32 5.5 -66.5 20.5 q-34.5 15 -45.5 36.5 q-11 21.5 6 40.5 q17 19 43 18.5 q26 -0.5 66 -7.5 l54 -11 l38 -4 q-7 49 -17.5 141.5 q-10.5 92.5 -28 340 q-17.5 247.5 -29 313.5 q-11.5 66 -9.5 73 l7 32 q-54 -11 -85 -17 q-31 -6 -44 -9 l-75 -22 q-63 -11 -77 14.5 q-14 25.5 3 54.5 q9 14 28 24 q19 10 80.5 28.5 q61.5 18.5 154.5 27 q93 8.5 174 9.5 q106 1 176.5 -4.5 q70.5 -5.5 171.5 -16 q101 -10.5 236.5 -35 q135.5 -24.5 237 -98 q101.5 -73.5 141.5 -135 q40 -61.5 56.5 -106.5 q16.5 -45 20 -114.5 q3.5 -69.5 -8.5 -132.5 q-20 -101 -61.5 -162.5 q-41.5 -61.5 -70.5 -90 q-29 -28.5 -43 -36.5 l-36 -24 q14 -34 22 -50 l46 -106 q27 -62 50 -102.5 q23 -40.5 47.5 -76.5 q24.5 -36 37.5 -58 q13 -22 7 -43.5 q-6 -21.5 -27.5 -27.5 q-21.5 -6 -47.5 13.5 q-26 19.5 -51 76 q-25 56.5 -49 101.5 l-40 71 q-11 18 -22 43 l-27 56 l-27 54 q-27 -14 -63 -31 q-36 -17 -131.5 -37.5 q-95.5 -20.5 -178 -30 q-82.5 -9.5 -179.5 -15.5 q-97 -6 -131 -4 l-38 1 l0 0 ZM508 279 q17 -3 29.5 -4 q12.5 -1 28.5 -1 q30 -2 157.5 7 q127.5 9 168 13.5 q40.5 4.5 129.5 27.5 q89 23 125 39 l47 20 q-18 25 -27 38 l-28 36 l-29 45 q-20 28 -17.5 47 q2.5 19 22 23.5 q19.5 4.5 37.5 -1.5 q18 -6 48 -43 q30 -37 52 -70 l19 -29 q22 16 56.5 44.5 q34.5 28.5 63.5 75.5 q29 47 42 84.5 q13 37.5 16 73.5 q3 36 0 65 q-5 37 -20 85 q-15 48 -43.5 99.5 q-28.5 51.5 -118.5 118 q-90 66.5 -212 88.5 q-122 22 -234.5 35.5 q-112.5 13.5 -231.5 10.5 q-57 -2 -125 -8 l-43 -4 q6 -13 11 -26.5 q5 -13.5 3 -84 q-2 -70.5 17.5 -240.5 q19.5 -170 32 -308 q12.5 -138 17.5 -182 l7 -75 l0 0 Z" /><glyph glyph-name="" unicode="s" d="M690 10 q20 -3 68 4 q48 7 99 29.5 q51 22.5 78 57.5 q27 35 37 80 q10 45 -1 91 q-7 27 -21.5 51 q-14.5 24 -51 57.5 q-36.5 33.5 -146 80 q-109.5 46.5 -136.5 56 q-27 9.5 -96.5 26.5 q-69.5 17 -144 36.5 q-74.5 19.5 -123 37 q-48.5 17.5 -99 63 q-50.5 45.5 -77 95 q-26.5 49.5 -26.5 134.5 q0 75 28.5 136 q28.5 61 86 107.5 q57.5 46.5 140.5 76 q83 29.5 158 44.5 q75 15 158 25.5 q83 10.5 115 11.5 q23 0 104 -3.5 q81 -3.5 155 -15.5 l137 -28 q57 -11 70.5 -23 q13.5 -12 19.5 -24 q6 -12 6.5 -24.5 q0.5 -12.5 -8 -26 q-8.5 -13.5 -23.5 -22 q-15 -8.5 -66 10.5 q-83 29 -141.5 41.5 q-58.5 12.5 -117 17 q-58.5 4.5 -120.5 2.5 q-107 -5 -231 -31.5 q-124 -26.5 -213.5 -67.5 q-89.5 -41 -117.5 -88.5 q-28 -47.5 -32.5 -103 q-4.5 -55.5 16.5 -97.5 q16 -34 69.5 -78.5 q53.5 -44.5 184.5 -77.5 q131 -33 181.5 -49 q50.5 -16 107 -40.5 q56.5 -24.5 139.5 -66 q83 -41.5 122.5 -81 q39.5 -39.5 63 -94 q23.5 -54.5 30 -119 q6.5 -64.5 -34.5 -138.5 q-34 -60 -107 -108 q-73 -48 -142 -55 q-69 -7 -107 -5 q-44 1 -79 9.5 q-35 8.5 -67 24 q-32 15.5 -89.5 53.5 q-57.5 38 -70 55 q-12.5 17 -11.5 31 q0 16 12.5 28 q12.5 12 22 15.5 q9.5 3.5 17.5 3.5 q7 -1 22 -6 q15 -5 70.5 -43.5 q55.5 -38.5 108.5 -56.5 q53 -18 73 -19 Z" /><glyph glyph-name="" unicode="t" d="M896 1079 q21 -240 34.5 -394 q13.5 -154 29.5 -294.5 q16 -140.5 23 -237 q7 -96.5 12 -136 q5 -39.5 6 -59.5 q1 -20 -8.5 -31.5 q-9.5 -11.5 -25.5 -13 q-16 -1.5 -29 10.5 q-17 13 -24.5 63 q-7.5 50 -21 192.5 q-13.5 142.5 -18.5 194.5 l-34 288 l-44 399 q-51 -9 -93.5 -17.5 q-42.5 -8.5 -126 -30 q-83.5 -21.5 -165.5 -47 q-82 -25.5 -172.5 -63 q-90.5 -37.5 -138.5 -39.5 q-24 -2 -39 7.5 q-15 9.5 -16.5 34.5 q-1.5 25 25.5 47 q9 7 34 17.5 q25 10.5 128 39.5 l272 83 q82 23 149 38.5 q67 15.5 112 25 q45 9.5 72 14.5 q27 5 105 16.5 q78 11.5 198 33 q120 21.5 178 30 q58 8.5 97 17.5 q39 9 58 5 q12 -4 29 -15 q17 -11 19 -19.5 q2 -8.5 -1 -18.5 q-5 -15 -14 -25 q-9 -10 -41 -15 l-85 -9 q-30 -4 -129.5 -21 q-99.5 -17 -135.5 -24 l-125 -27 l-94 -20 l0 0 Z" /><glyph glyph-name="" unicode="u" d="M1307 1261 q2 -1 18 -13.5 q16 -12.5 16 -31.5 q-1 -5 -8.5 -37.5 q-7.5 -32.5 -49 -185 q-41.5 -152.5 -51.5 -198.5 q-10 -46 -32 -164 q-22 -118 -57 -309 q-35 -191 -45 -254.5 q-10 -63.5 -28 -100 q-18 -36.5 -49.5 -51 q-31.5 -14.5 -85.5 -14.5 q-80 -1 -198.5 8 q-118.5 9 -221 21 q-102.5 12 -200.5 34 q-98 22 -152.5 45 q-54.5 23 -82.5 60 q-28 37 -23 164 q7 162 10.5 218 q3.5 56 18 195.5 q14.5 139.5 21.5 212.5 l19 217 l18 181 q3 41 9 56 q6 15 28.5 34.5 q22.5 19.5 40.5 -8.5 q18 -28 19.5 -39 q1.5 -11 -5.5 -46 q-5 -24 -11 -91 l-19 -178 q-1 -5 -8 -114 q-7 -109 -13 -172 l-17 -145 q-3 -23 -20.5 -198.5 q-17.5 -175.5 13.5 -220.5 q32 -48 152 -79.5 q120 -31.5 233 -42.5 l191 -14 q138 -13 188 -8 q45 4 63 19 q18 15 26.5 46 q8.5 31 30.5 174.5 q22 143.5 34.5 213.5 q12.5 70 46 228.5 q33.5 158.5 52 241 q18.5 82.5 35.5 171 q17 88.5 25.5 118.5 q8.5 30 27 45.5 q18.5 15.5 41.5 11.5 Z" /><glyph glyph-name="" unicode="v" d="M655 45 q19 -29 30 -50.5 q11 -21.5 9.5 -45.5 q-1.5 -24 -19 -38.5 q-17.5 -14.5 -41.5 -4.5 q-13 4 -28 21.5 q-15 17.5 -26 35 q-11 17.5 -41 85.5 l-74 149 q-28 56 -84 189 l-126 296 q-31 72 -57 138 q-26 66 -69 177.5 q-43 111.5 -65.5 174 q-22.5 62.5 -14.5 85.5 q8 23 25 30 q17 7 40 -7 q15 -11 34 -50 l36 -73 q8 -19 55 -147 l85 -210 l64 -164 l72 -178 q53 -139 82 -199.5 q29 -60.5 43 -94.5 q14 -34 29 -33 q9 0 28.5 21.5 q19.5 21.5 50 52 q30.5 30.5 95.5 111.5 l181 223 q40 52 111 149.5 q71 97.5 156.5 219.5 q85.5 122 122.5 174 q37 52 49 85 q12 33 31 54.5 q19 21.5 43.5 8 q24.5 -13.5 26.5 -34 q2 -20.5 -2 -33.5 q-6 -18 -26 -49 l-270 -382 q-200 -285 -226 -317.5 q-26 -32.5 -117.5 -140 q-91.5 -107.5 -153 -167 q-61.5 -59.5 -59.5 -61.5 Z" /><glyph glyph-name="" unicode="w" d="M55 1224 q2 10 19 25 q17 15 38 15 q10 -1 21 -6 q11 -5 19.5 -16.5 q8.5 -11.5 16.5 -36.5 l57 -252 q10 -45 37.5 -146.5 q27.5 -101.5 59 -222 q31.5 -120.5 66.5 -231.5 q35 -111 48.5 -161.5 q13.5 -50.5 30.5 -92 q17 -41.5 35 -44.5 q18 -3 72 64 q3 4 44 45.5 q41 41.5 95.5 110 q54.5 68.5 95 112 q40.5 43.5 71 70 q30.5 26.5 52.5 34 q22 7.5 50 -2.5 q17 -7 52 -38 q35 -31 78 -72 q43 -41 63 -64.5 q20 -23.5 34 -46.5 q14 -23 12.5 -38.5 q-1.5 -15.5 -17 -29 q-15.5 -13.5 -33.5 -8.5 q-12 2 -29 23 l-47 55 q-45 51 -82.5 85 q-37.5 34 -62.5 34 q-23 -1 -48 -22 q-25 -21 -55 -57 q-30 -36 -69.5 -80.5 q-39.5 -44.5 -58.5 -68 q-19 -23.5 -62 -84.5 q-43 -61 -86.5 -115.5 q-43.5 -54.5 -79.5 -49.5 q-31 3 -56.5 38 q-25.5 35 -47.5 112 l-29 94 q-7 22 -36.5 124 q-29.5 102 -83.5 280 q-54 178 -85 292 q-31 114 -36 132 l-40 127 q-15 47 -19 78.5 q-4 31.5 -4 35.5 ZM1484 1288 q6 -1 21 -7.5 q15 -6.5 22 -22 q7 -15.5 -2 -53.5 q-6 -21 -16 -76 l-32 -157 q-14 -68 -31.5 -180.5 q-17.5 -112.5 -19.5 -127.5 l-52 -271 l-27 -169 q-14 -69 -16.5 -84 q-2.5 -15 -7 -77 q-4.5 -62 -12 -85.5 q-7.5 -23.5 -18.5 -31.5 q-11 -8 -32 -6 q-10 0 -17.5 3.5 q-7.5 3.5 -14 14 q-6.5 10.5 -7.5 35.5 q-1 25 10 84 q35 205 65 369.5 q30 164.5 40.5 227.5 q10.5 63 29 200 q18.5 137 29.5 213 q11 76 21 117.5 q10 41.5 18.5 56 q8.5 14.5 22.5 21 q14 6.5 26 6.5 Z" /><glyph glyph-name="" unicode="x" d="M815 599 q25 16 41.5 26.5 q16.5 10.5 56 32 q39.5 21.5 129.5 62 q90 40.5 126.5 58 q36.5 17.5 78 43.5 q41.5 26 75 24.5 q33.5 -1.5 37.5 -15.5 q4 -14 3 -29 q-4 -31 -11 -40 q-7 -9 -48 -31 q-41 -22 -159 -72 q-118 -50 -156.5 -71 q-38.5 -21 -68.5 -39 l-51 -31 q19 -29 34 -51 q15 -22 46 -64 l61 -84 q27 -39 87.5 -124.5 q60.5 -85.5 96 -125.5 q35.5 -40 51.5 -63 q16 -23 12 -48 q-3 -14 -10 -25 q-7 -11 -12.5 -16.5 q-5.5 -5.5 -30.5 0.5 q-14 3 -24.5 9 q-10.5 6 -27.5 29 l-97 144 q-21 30 -94.5 125 q-73.5 95 -109.5 149 l-32 48 l-32 48 q-41 -24 -53 -30.5 q-12 -6.5 -92.5 -50.5 q-80.5 -44 -125.5 -73 l-166 -120 q-108 -78 -151 -122.5 q-43 -44.5 -59 -51 q-16 -6.5 -28 -7.5 q-23 -4 -42.5 6.5 q-19.5 10.5 -15.5 48.5 q1 16 22.5 45.5 q21.5 29.5 115.5 94.5 l259 179 q37 22 98.5 54 q61.5 32 85.5 47 l49 31 l49 29 q-32 47 -67 96.5 q-35 49.5 -84 101.5 q-49 52 -133.5 130.5 q-84.5 78.5 -164 155 q-79.5 76.5 -133.5 117 q-54 40.5 -62 63.5 q-8 23 -4 42 q3 16 15.5 27 q12.5 11 34.5 11 q14 -1 50.5 -18.5 q36.5 -17.5 136 -122 q99.5 -104.5 202.5 -206.5 q103 -102 127 -129 q24 -27 47 -53.5 q23 -26.5 33 -38.5 l55 -81 l30 -44 l0 0 Z" /><glyph glyph-name="" unicode="y" d="M723 406 q8 -37 15.5 -69.5 q7.5 -32.5 50.5 -197.5 q43 -165 41.5 -197 q-1.5 -32 -27 -49 q-25.5 -17 -53.5 23 q-7 8 -11.5 43.5 q-4.5 35.5 -33 149.5 q-28.5 114 -43.5 180 l-23 100 l-6 34 q-15 17 -25.5 30.5 q-10.5 13.5 -46.5 64 q-36 50.5 -115.5 159.5 q-79.5 109 -116 160.5 q-36.5 51.5 -83.5 125.5 l-74 115 q-42 63 -76 101.5 q-34 38.5 -41.5 69 q-7.5 30.5 9.5 47 q17 16.5 37 15 q20 -1.5 38 -18.5 q18 -17 42 -55.5 q24 -38.5 79 -120.5 q55 -82 92 -136.5 q37 -54.5 93 -142 q56 -87.5 65 -100.5 q9 -13 68.5 -97 q59.5 -84 76.5 -109 l25 -38 q29 32 43 49 l154 205 l85 99 l78 100 l128 157 q25 31 45 42 q20 11 37.5 4 q17.5 -7 21.5 -28.5 q4 -21.5 -32.5 -68.5 q-36.5 -47 -75.5 -95 l-162 -195 q-37 -46 -79 -102 l-130 -173 q-24 -30 -29 -36 l-41 -45 l0 0 Z" /><glyph glyph-name="" unicode="z" d="M310 299 q131 -41 198 -55 l158 -32 q13 -4 63 -19 q50 -15 210 -74 q160 -59 217.5 -73 q57.5 -14 96 -18.5 q38.5 -4.5 50 -12 q11.5 -7.5 19 -19.5 q7.5 -12 9.5 -31 q2 -19 -9.5 -27.5 q-11.5 -8.5 -23.5 -9.5 l-82 17 l-111 23 l-432 149 q-59 17 -289 59 l-149 27 q-24 -13 -39.5 -22 q-15.5 -9 -23.5 -7 q-5 0 -13 6 q-8 6 -15 19.5 q-7 13.5 -6 35.5 q0 14 6.5 35.5 q6.5 21.5 67.5 69.5 l203 170 q97 80 188 143 l148 97 l267 176 l87 53 q53 32 61.5 41.5 q8.5 9.5 8 16.5 q-0.5 7 -7.5 14 l-88 16 l-29 6 q-121 24 -330 45 q-209 21 -308 29.5 q-99 8.5 -165.5 11.5 q-66.5 3 -115.5 1 q-49 -2 -67.5 14.5 q-18.5 16.5 -16.5 38.5 q2 17 22.5 31 q20.5 14 74.5 15 q54 0 76.5 -1 q22.5 -1 116.5 -9 l158 -12 q83 -7 262.5 -29 q179.5 -22 321 -41.5 q141.5 -19.5 236.5 -42.5 q95 -23 119.5 -26 q24.5 -3 37.5 -10.5 q13 -7.5 20 -17.5 q7 -10 14.5 -26 q7.5 -16 7 -24.5 q-0.5 -8.5 -11.5 -21 q-11 -12.5 -46 -10.5 l-88 13 q-42 3 -83 -9 q-41 -12 -143 -87 l-232 -150 l-235 -163 q-201 -139 -221 -159 l-144 -134 l0 0 Z" /><glyph glyph-name="" unicode="a" d="M765 886 q-1 17 -1.5 32 q-0.5 15 7 35 q7.5 20 36 24 q28.5 4 47.5 -32 q4 -10 6.5 -29 q2.5 -19 3.5 -92 q1 -73 5 -122 l21 -279 l24 -217 q6 -60 20.5 -101 q14.5 -41 11 -76.5 q-3.5 -35.5 -29.5 -36.5 q-26 -1 -40 11 q-16 13 -29 74 l-22 109 l-17 119 q-7 45 -14 146 q-7 101 -12.5 171 q-5.5 70 -20 111 q-14.5 41 -53 80 q-38.5 39 -75 59.5 q-36.5 20.5 -94.5 26.5 q-58 4 -121 -13 q-63 -17 -110 -54.5 q-47 -37.5 -91 -97.5 q-44 -60 -62.5 -125.5 q-18.5 -65.5 -14.5 -156.5 q5 -139 41.5 -232 q36.5 -93 73.5 -132 q37 -39 88 -60 q51 -21 107 -19 q43 1 104 22.5 q61 21.5 100.5 74 q39.5 52.5 54 60 q14.5 7.5 30.5 -1.5 q16 -9 14 -46 q-2 -25 -16.5 -48.5 q-14.5 -23.5 -71 -67.5 q-56.5 -44 -106 -69.5 q-49.5 -25.5 -142.5 -18.5 q-88 6 -167.5 55.5 q-79.5 49.5 -134 161.5 q-54.5 112 -62 258.5 q-7.5 146.5 6.5 212.5 q16 72 51 127 q35 55 74.5 101.5 q39.5 46.5 78 79.5 q38.5 33 126 62.5 q87.5 29.5 163.5 24.5 q51 -5 99 -26 q48 -21 79 -52 l34 -33 l0 0 Z" /><glyph glyph-name="" unicode="c" d="M131 427 q6 -69 51.5 -153.5 q45.5 -84.5 111.5 -131 q66 -46.5 131.5 -69 q65.5 -22.5 135 -39.5 q69.5 -17 106.5 -22.5 q37 -5.5 49.5 -9 q12.5 -3.5 30.5 -14.5 q18 -11 22 -23.5 q4 -12.5 -12 -27.5 q-16 -15 -39 -16 q-15 -1 -56.5 4.5 q-41.5 5.5 -95.5 14 q-54 8.5 -142.5 37 q-88.5 28.5 -146.5 68.5 q-58 40 -107.5 94.5 q-49.5 54.5 -75 107 q-25.5 52.5 -36 120 q-10.5 67.5 -5.5 127.5 q6 72 31 124 q25 52 66 105.5 q41 53.5 95 108.5 q54 55 163 96.5 q109 41.5 158 48.5 q49 7 92 7 q41 -1 97.5 -8.5 q56.5 -7.5 117.5 -27.5 q61 -20 113 -51.5 q52 -31.5 79 -77 q27 -45.5 27.5 -60.5 q0.5 -15 -8 -28.5 q-8.5 -13.5 -31 -14 q-22.5 -0.5 -46.5 25.5 l-29 34 q-21 23 -51.5 46 q-30.5 23 -78.5 43 q-48 20 -133 28 q-92 7 -161 -5.5 q-69 -12.5 -136 -40 q-67 -27.5 -129.5 -86 q-62.5 -58.5 -98.5 -119 q-36 -60.5 -49 -124.5 q-13 -64 -10 -91 Z" /><glyph glyph-name="" unicode="d" d="M926 599 q-66 116 -124 170.5 q-58 54.5 -139.5 79 q-81.5 24.5 -114 30.5 q-32.5 6 -77.5 5 q-43 -2 -99.5 -14 q-56.5 -12 -94 -38.5 q-37.5 -26.5 -83.5 -93.5 q-46 -67 -53 -173 q-7 -106 10 -193 q15 -86 53 -161.5 q38 -75.5 97 -116.5 q59 -41 119 -60 q60 -19 125 -20 q56 -2 103 10 q47 12 84 36 l58 42 q28 20 52 14.5 q24 -5.5 24 -43.5 q-1 -22 -43.5 -53 q-42.5 -31 -85.5 -50.5 q-43 -19.5 -88 -30.5 q-45 -11 -108 -9 q-163 3 -255.5 69.5 q-92.5 66.5 -144.5 148 q-52 81.5 -73.5 180.5 q-21.5 99 -14.5 196 q11 148 58.5 230 q47.5 82 81 114.5 q33.5 32.5 109 65 q75.5 32.5 175.5 32.5 q99 -1 211 -41.5 q112 -40.5 136 -67.5 l95 -98 l-38 332 q-17 140 -15.5 160 q1.5 20 12 36.5 q10.5 16.5 31 19 q20.5 2.5 29 -8.5 q8.5 -11 19.5 -106 l27 -256 l28 -209 l16 -176 l17 -135 l20 -172 l21 -125 q8 -53 8.5 -71.5 q0.5 -18.5 -2.5 -79.5 q-1 -21 -11 -33.5 q-10 -12.5 -39 -0.5 q-11 4 -20 15.5 q-9 11.5 -14.5 36.5 q-5.5 25 -11 82.5 q-5.5 57.5 -15.5 135.5 l-32 233 l-23 162 l0 0 Z" /><glyph glyph-name="" unicode="e" d="M292 159 q16 -22 33 -40.5 q17 -18.5 54 -39.5 q37 -21 79.5 -35.5 q42.5 -14.5 79.5 -17.5 q35 -4 77 2.5 q42 6.5 83.5 25.5 q41.5 19 88 52 q46.5 33 68.5 50 q22 17 41.5 21.5 q19.5 4.5 35.5 -7.5 q16 -12 6 -47 q-7 -23 -55.5 -64 q-48.5 -41 -100 -70.5 q-51.5 -29.5 -120 -47 q-68.5 -17.5 -120.5 -13.5 q-61 3 -134 34 q-73 31 -135 75 q-62 44 -100 91.5 q-38 47.5 -67.5 108.5 q-29.5 61 -43.5 136 q-14 75 -11 145 q3 89 32 150.5 q29 61.5 73 104 q44 42.5 106.5 86 q62.5 43.5 125.5 68 q63 24.5 101.5 32.5 q38.5 8 73.5 9 q92 2 174.5 -42 q82.5 -44 110 -104.5 q27.5 -60.5 26.5 -135.5 q-2 -71 -24.5 -128 q-22.5 -57 -71 -112 q-48.5 -55 -98 -93.5 q-49.5 -38.5 -128 -83.5 q-78.5 -45 -170.5 -77 q-92 -32 -90 -33 ZM230 220 q67 22 122.5 44 q55.5 22 139.5 71 q84 49 127 84.5 q43 35.5 75 69.5 q32 34 58 78.5 q26 44.5 31.5 110.5 q5.5 66 -21.5 110 q-26 40 -88 67 q-62 27 -141 20 q-55 -6 -109 -26.5 q-54 -20.5 -109 -52 q-55 -31.5 -90.5 -64.5 q-35.5 -33 -58 -77.5 q-22.5 -44.5 -29 -94 q-6.5 -49.5 0.5 -104.5 q12 -110 53.5 -172.5 q41.5 -62.5 38.5 -63.5 Z" /><glyph glyph-name="" unicode="f" d="M554 645 q3 -28 8.5 -80.5 q5.5 -52.5 6.5 -55.5 l30 -186 l52 -292 l25 -119 q9 -60 16 -88.5 q7 -28.5 -0.5 -46.5 q-7.5 -18 -34 -24 q-26.5 -6 -41.5 6 q-12 9 -19.5 41 q-7.5 32 -11 47.5 q-3.5 15.5 -14 93 q-10.5 77.5 -31.5 205.5 l-55 328 q-8 45 -12 81 l-9 71 q-29 -6 -54.5 -11 q-25.5 -5 -89.5 -21.5 q-64 -16.5 -125.5 -41 q-61.5 -24.5 -82.5 -27.5 q-22 -3 -38 4 q-16 7 -20 23.5 q-4 16.5 11.5 35.5 q15.5 19 69.5 35 l214 63 l106 22 l-4 30 q-13 67 -16.5 101 q-3.5 34 -4 79.5 q-0.5 45.5 17.5 107.5 q11 41 27.5 72 q16.5 31 45.5 67 q29 36 68 67 l87 56 l77 23 l60 -27 l-26 -54 q-8 -7 -70.5 -28.5 q-62.5 -21.5 -110.5 -72 q-48 -50.5 -66 -104.5 q-18 -54 -15 -114 q1 -28 8.5 -78.5 q7.5 -50.5 8.5 -61.5 l4 -43 l56 12 l167 31 q49 12 67 9 q15 -4 27.5 -14.5 q12.5 -10.5 14 -19.5 q1.5 -9 -5.5 -21 q-9 -15 -24 -24.5 q-15 -9.5 -79 -18 q-64 -8.5 -110 -16.5 l-75 -15 l-30 -6 l0 0 Z" /><glyph glyph-name="" unicode="g" d="M852 261 q-87 -113 -136.5 -156 q-49.5 -43 -120.5 -82.5 q-71 -39.5 -135 -50.5 q-98 -17 -179.5 19.5 q-81.5 36.5 -138.5 107.5 q-57 71 -76.5 160 q-19.5 89 -15.5 176 q5 101 36.5 183.5 q31.5 82.5 89.5 149 q58 66.5 128.5 111.5 q70.5 45 139.5 68.5 q69 23.5 147 32.5 q78 8 130 -4 q52 -12 109.5 -51.5 q57.5 -39.5 87.5 -106.5 q30 -67 37.5 -168.5 q7.5 -101.5 7.5 -169.5 q-1 -84 -11.5 -229 q-10.5 -145 -25 -269 q-14.5 -124 -49 -179.5 q-34.5 -55.5 -81 -97 q-46.5 -41.5 -118 -71 q-71.5 -29.5 -157.5 -18.5 q-50 5 -80.5 19.5 q-30.5 14.5 -89 49.5 q-58.5 35 -72.5 69.5 q-14 34.5 7 53.5 q21 19 53 5 q7 -4 28 -22 q21 -18 80 -49 q59 -31 93 -34 q44 -6 103 18.5 q59 24.5 100.5 65.5 q41.5 41 69 117 q27.5 76 33 213.5 q5.5 137.5 6.5 138.5 ZM845 416 q9 78 15 153 q6 75 -13 149 q-21 78 -67 118 q-46 40 -119 49 q-94 10 -217.5 -42.5 q-123.5 -52.5 -179.5 -112 q-56 -59.5 -89 -146.5 q-33 -87 -32 -189 q0 -99 33 -164 q33 -65 95 -111 q62 -46 136 -53.5 q74 -7.5 172 54.5 q59 37 115.5 99 q56.5 62 88.5 108 l62 88 l0 0 Z" /><glyph glyph-name="" unicode="h" d="M139 712 q66 61 118.5 105.5 q52.5 44.5 112 77 q59.5 32.5 145 60 q85.5 27.5 149 33.5 q63.5 6 95 -17.5 q31.5 -23.5 42.5 -72 q11 -48.5 8 -134.5 l-6 -172 q-5 -80 -18 -210.5 q-13 -130.5 -14.5 -183 q-1.5 -52.5 -13 -82 q-11.5 -29.5 -38 -35 q-26.5 -5.5 -39.5 10.5 q-13 16 -10 51 q1 28 5 66 l10 106 q2 28 11 130.5 q9 102.5 16.5 186.5 q7.5 84 11 162.5 q3.5 78.5 -25 94.5 q-28.5 16 -86.5 5 q-61 -13 -131.5 -42.5 q-70.5 -29.5 -119 -61 q-48.5 -31.5 -98.5 -78.5 l-114 -106 q2 -177 8 -264 l21 -251 q4 -63 9 -94 q5 -31 -1 -49 q-6 -18 -24 -25 q-18 -7 -36 8 q-14 10 -17.5 27.5 q-3.5 17.5 -4 51.5 q-0.5 34 -9.5 107 q-9 73 -19 217.5 q-10 144.5 -13 208 q-3 63.5 -6 229.5 q-3 166 -3 217 l8 204 l9 86 l11 25 l37 17 l25 -23 l9 -39 l-11 -119 q-5 -40 -6 -190 q-1 -150 0 -152 l3 -86 l0 0 Z" /><glyph glyph-name="" unicode="i" d="M82 700 l-30 210 l-1 44 l33 26 l51 -11 l15 -19 l30 -233 l27 -189 l21 -141 l23 -158 q19 -146 28.5 -197 q9.5 -51 12.5 -77 q3 -26 -6 -37.5 q-9 -11.5 -25 -13.5 q-16 -2 -29 9 q-18 12 -27.5 59 q-9.5 47 -23.5 145 l-25 157 l-20 113 l-14 78 l-40 235 l0 0 ZM46 1220 l23 60 l41 20 l20 4 l36 -10 l25 -27 l13 -43 l-10 -43 l-26 -31 l-32 -10 l-59 12 l-16 14 l-15 54 l0 0 Z" /><glyph glyph-name="" unicode="k" d="M375 559 q14 -10 21 -15 q7 -5 45 -34 q38 -29 78 -57 q40 -28 93.5 -61 q53.5 -33 73.5 -47 l50 -38 q14 -10 63 -35 q49 -25 54.5 -42 q5.5 -17 -8 -30.5 q-13.5 -13.5 -27.5 -16.5 q-22 -5 -41 3 q-19 8 -49 27.5 q-30 19.5 -106 64.5 q-76 45 -112 72 l-125 96 q-60 41 -70.5 56 q-10.5 15 -16 29 q-5.5 14 -4.5 30 q1 23 15 40.5 q14 17.5 53 43 q39 25.5 134 102.5 q95 77 168 133 l124 93 q56 43 97 83 q41 40 71.5 54.5 q30.5 14.5 44.5 4 q14 -10.5 17 -27.5 q3 -17 -27 -49 q-24 -25 -56.5 -54 q-32.5 -29 -185.5 -145 l-217 -167 q-30 -22 -93.5 -68 q-63.5 -46 -63.5 -45 ZM98 1310 q18 -3 25.5 -12 q7.5 -9 12 -22 q4.5 -13 7.5 -40 l11 -134 q6 -79 25 -225.5 q19 -146.5 24.5 -193.5 q5.5 -47 19 -173.5 q13.5 -126.5 18.5 -162 q5 -35.5 23.5 -158 q18.5 -122.5 32 -164.5 q13.5 -42 9.5 -74.5 q-4 -32.5 -30 -38 q-26 -5.5 -45 25.5 q-6 8 -10 31 l-23 96 q-8 31 -14 65.5 q-6 34.5 -16.5 109.5 q-10.5 75 -17.5 133 l-30 276 l-27 215 q-34 284 -40.5 327.5 q-6.5 43.5 -2.5 79.5 q2 21 12 31.5 q10 10.5 36 7.5 Z" /><glyph glyph-name="" unicode="l" d="M55 1132 l-2 120 l3 27 l42 28 l40 -13 l15 -31 l2 -126 l3 -373 l4 -182 l6 -200 l3 -159 l4 -185 q5 -69 5 -86 q-1 -30 -11.5 -41.5 q-10.5 -11.5 -26.5 -12 q-16 -0.5 -29 13.5 q-15 15 -18 60 l-7 148 l-6 244 l-6 97 l-5 113 l-4 138 l-12 420 l0 0 Z" /><glyph glyph-name="" unicode="n" d="M162 875 q44 31 91.5 63 q47.5 32 107 52.5 q59.5 20.5 113.5 24.5 q54 4 87 3 q54 -3 99.5 -15.5 q45.5 -12.5 84 -35.5 q38.5 -23 59.5 -56.5 q21 -33.5 30 -99 q9 -65.5 20 -211.5 l11 -155 q2 -32 3 -62 q1 -30 1 -95 q-1 -28 -2 -68.5 q-1 -40.5 -0.5 -63 q0.5 -22.5 4 -59 q3.5 -36.5 -1.5 -54.5 q-6 -16 -19.5 -27.5 q-13.5 -11.5 -41.5 -4.5 q-11 2 -23 10.5 q-12 8.5 -17 47.5 q-5 28 1.5 109 q6.5 81 -0.5 214 q-4 71 -11 155 q-7 84 -11.5 150.5 q-4.5 66.5 -16.5 114.5 q-12 48 -36.5 69.5 q-24.5 21.5 -56.5 28.5 q-32 7 -84 9 q-73 2 -112.5 -4.5 q-39.5 -6.5 -101 -34.5 q-61.5 -28 -105 -62.5 q-43.5 -34.5 -51.5 -64.5 q-8 -30 0 -77 l27 -162 q8 -52 20.5 -145.5 q12.5 -93.5 19.5 -134.5 l24 -135 q13 -79 18 -102 q5 -23 5.5 -37.5 q0.5 -14.5 -4.5 -29.5 q-5 -15 -21.5 -24 q-16.5 -9 -33.5 0 q-13 6 -21.5 24 q-8.5 18 -12.5 49.5 q-4 31.5 -18.5 104.5 q-14.5 73 -21.5 128 l-18 130 l-37 233 l-30 209 l-22 148 q-3 17 -5 48 q-2 31 5 49.5 q7 18.5 33.5 24.5 q26.5 6 44.5 -16 q7 -10 11 -38 l7 -50 l3 -28 l6 -47 l0 0 Z" /><glyph glyph-name="" unicode="o" d="M384 -79 q-57 1 -111 16.5 q-54 15.5 -103.5 63 q-49.5 47.5 -79.5 126 q-30 78.5 -38 162 q-8 83.5 3 156.5 q6 41 22.5 91 q16.5 50 54.5 117 q38 67 95.5 136 q57.5 69 125.5 108 q68 39 121 62 q53 23 94 28 q27 3 66.5 -2 q39.5 -5 56.5 -20 q17 -15 24 -34 q7 -19 7.5 -35.5 q0.5 -16.5 -7 -26 q-7.5 -9.5 -23.5 -11.5 q-14 -2 -53 11.5 q-39 13.5 -78 11.5 q-38 -3 -88.5 -25 q-50.5 -22 -123.5 -86.5 q-73 -64.5 -113 -126 q-40 -61.5 -63 -135.5 q-23 -74 -25.5 -156.5 q-2.5 -82.5 15.5 -138.5 q30 -98 89 -135 q59 -37 108.5 -46 q49.5 -9 103.5 -7 q72 1 125.5 21 q53.5 20 102 73 q48.5 53 74.5 108.5 q26 55.5 42 116 q16 60.5 24.5 115.5 q8.5 55 10 147.5 q1.5 92.5 -22.5 130.5 q-8 11 -29 32 q-21 21 -29 35.5 q-8 14.5 0 37.5 q8 23 34.5 26 q26.5 3 55.5 -16 q28 -20 48 -50 q20 -30 34 -85 q14 -55 14.5 -119 q0.5 -64 -14.5 -162 q-14 -90 -36.5 -162 q-22.5 -72 -86 -160.5 q-63.5 -88.5 -145 -131.5 q-81.5 -43 -151 -53 q-69.5 -10 -131.5 -8 Z" /><glyph glyph-name="" unicode="p" d="M288 857 q-47 -14 -102 -34 q-55 -20 -83 -20 q-26 -1 -38 7.5 q-12 8.5 -15.5 20.5 q-3.5 12 1.5 27 q9 24 58.5 43 q49.5 19 100.5 29 l79 15 q-12 44 -6 59.5 q6 15.5 14 24.5 q8 9 24.5 18 q16.5 9 38.5 9.5 q22 0.5 24 -25.5 l14 -62 q54 0 89 -0.5 q35 -0.5 112 -6.5 q77 -6 137.5 -22.5 q60.5 -16.5 156 -70.5 q95.5 -54 156 -128.5 q60.5 -74.5 95.5 -178 q35 -103.5 23 -187.5 q-7 -47 -33.5 -100.5 q-26.5 -53.5 -73.5 -94 q-47 -40.5 -83.5 -60 q-36.5 -19.5 -89 -39.5 q-52.5 -20 -100 -33.5 q-47.5 -13.5 -148.5 -36 q-101 -22.5 -130 -23.5 q-22 -2 -44 6 q-22 8 -24.5 29.5 q-2.5 21.5 22.5 40.5 q14 11 38.5 16 q24.5 5 79.5 17.5 q55 12.5 120.5 25.5 q65.5 13 108.5 24.5 q43 11.5 96 37.5 q53 26 81.5 53 q28.5 27 49.5 63.5 q21 36.5 25.5 66.5 q4.5 30 3.5 59 q-6 82 -50.5 166 q-44.5 84 -115.5 144.5 q-71 60.5 -153.5 89 q-82.5 28.5 -151 36.5 q-68.5 8 -134.5 7 l-65 -1 q-5 -144 -3 -215 l5 -160 l6 -259 q0 -25 13 -213 q13 -188 17 -212.5 q4 -24.5 14.5 -73.5 q10.5 -49 9 -67 q-1.5 -18 -13 -31 q-11.5 -13 -29.5 -9 q-18 4 -34.5 20 q-16.5 16 -24.5 88 l-21 147 q-2 13 -20 317 l-13 198 l-4 183 l-6 151 l-4 124 l0 0 Z" /><glyph glyph-name="" unicode="r" d="M821 933 q18 -13 14.5 -36 q-3.5 -23 -25 -35.5 q-21.5 -12.5 -60.5 -24.5 q-39 -12 -90.5 -34 q-51.5 -22 -140 -73 q-88.5 -51 -115 -70 q-26.5 -19 -66 -48.5 q-39.5 -29.5 -57 -30 q-17.5 -0.5 -30 14.5 q-12.5 15 -7.5 38 q5 27 47.5 55 q42.5 28 121.5 74.5 q79 46.5 115 65.5 l147 72 q67 34 101.5 36 q34.5 2 44.5 -4 ZM69 781 l-17 118 q-2 19 2 32.5 q4 13.5 30 20.5 q26 7 45 -6.5 q19 -13.5 21 -23.5 l17 -124 l18 -148 q5 -42 19.5 -131 q14.5 -89 24.5 -153 q10 -64 24.5 -172 q14.5 -108 24.5 -162 q10 -54 12.5 -79.5 q2.5 -25.5 -6 -38 q-8.5 -12.5 -24 -14.5 q-15.5 -2 -29.5 10 q-18 13 -27 58 q-9 45 -24.5 145 q-15.5 100 -29.5 188 l-16 95 q-17 98 -19 109 q-2 11 -18.5 102.5 q-16.5 91.5 -27.5 173.5 Z" /><glyph glyph-name="" unicode="s" d="M534 899 q-67 0 -156.5 -19 q-89.5 -19 -141.5 -59 q-52 -40 -74 -76 q-22 -36 -21 -69 q0 -21 10 -46.5 q10 -25.5 35 -54 q25 -28.5 131 -64.5 q106 -36 206 -85 q100 -49 189.5 -118 q89.5 -69 130 -127 q40.5 -58 38.5 -107 q-3 -36 -29 -76.5 q-26 -40.5 -60.5 -62 q-34.5 -21.5 -128.5 -20.5 q-60 0 -90.5 5.5 q-30.5 5.5 -109.5 32.5 q-79 27 -107 39.5 q-28 12.5 -45.5 45 q-17.5 32.5 1 56.5 q18.5 24 56.5 19 q12 -2 58.5 -34 q46.5 -32 105.5 -46 q59 -14 87.5 -19 q28.5 -5 50.5 -4 q46 0 76 21.5 q30 21.5 34 43 q4 21.5 -7 47.5 q-13 27 -66 79 q-53 52 -96 81 q-43 29 -107 57 l-276 106 q-75 35 -108.5 72 q-33.5 37 -49.5 80.5 q-16 43.5 -16 89.5 q0 47 18.5 88 q18.5 41 91.5 107 q73 66 188.5 88 q115.5 22 192.5 22 q77 -1 137.5 -15.5 q60.5 -14.5 117 -44 q56.5 -29.5 84 -50 q27.5 -20.5 110 -87.5 q82.5 -67 95 -98 q12.5 -31 13 -52.5 q0.5 -21.5 -6.5 -30.5 q-5 -6 -17.5 -13 q-12.5 -7 -26.5 -8 q-14 -1 -40 27 l-86 102 q-53 56 -138.5 101 q-85.5 45 -140 60 q-54.5 15 -112.5 16 Z" /><glyph glyph-name="" unicode="t" d="M450 774 q-15 -110 -23 -192 q-8 -82 -10 -185 q-2 -103 0 -187 q1 -78 8 -121 q7 -43 19 -52.5 q12 -9.5 27 -11.5 q24 -5 58.5 9.5 q34.5 14.5 85.5 34 q51 19.5 97 45.5 q46 26 67 33 q21 7 40 -7.5 q19 -14.5 9 -50.5 q-8 -27 -71 -54 l-88 -43 q-24 -12 -88 -39 q-64 -27 -100 -32 q-46 -7 -74 8 q-28 15 -46 67.5 q-18 52.5 -24.5 109 q-6.5 56.5 -12 155.5 q-5.5 99 -2.5 185 q2 115 17 224 l15 120 q-28 5 -68 14 q-40 9 -80 23 l-97 33 q-53 15 -66.5 47 q-13.5 32 16.5 50 q30 18 54.5 12 q24.5 -6 81.5 -31.5 q57 -25.5 79 -30.5 l88 -26 q13 63 19 95 l26 148 q10 51 29.5 75.5 q19.5 24.5 36 23 q16.5 -1.5 28.5 -19 q12 -17.5 4 -65.5 l-20 -114 q-18 -92 -18 -98 l-7 -66 q91 -19 137 -28 l130 -28 q66 -15 103.5 -19.5 q37.5 -4.5 58.5 -20.5 q21 -16 15.5 -37.5 q-5.5 -21.5 -27 -31.5 q-21.5 -10 -55.5 -4 q-34 6 -76 16 l-216 49 l-80 18 l0 0 Z" /><glyph glyph-name="" unicode="u" d="M782 250 q-41 -52 -79.5 -96.5 q-38.5 -44.5 -107 -105.5 q-68.5 -61 -115.5 -88.5 q-47 -27.5 -112 -47.5 q-65 -20 -112 2 q-41 18 -81.5 90.5 q-40.5 72.5 -67 207 q-26.5 134.5 -38.5 232 q-12 97.5 -14.5 177.5 q-2.5 80 -2.5 152 q0 72 0 105 q0 33 5 57 q5 25 17 38 q12 13 24 15 q12 2 26.5 -10.5 q14.5 -12.5 20.5 -29.5 q6 -21 -2.5 -78 q-8.5 -57 -7.5 -136 q1 -116 7.5 -192.5 q6.5 -76.5 32.5 -233.5 q26 -157 59.5 -227 q33.5 -70 79 -79 q45.5 -9 120.5 40 q47 31 103.5 80 q56.5 49 104.5 101 q48 52 83.5 105 q35.5 53 46.5 89.5 q11 36.5 18 102.5 l18 158 q7 75 10 145.5 q3 70.5 20 80 q17 9.5 37 6.5 q17 -4 25.5 -13.5 q8.5 -9.5 12.5 -32.5 q4 -23 3 -47 q-1 -14 -6.5 -54 q-5.5 -40 -11.5 -107.5 q-6 -67.5 -20 -201 q-14 -133.5 -15 -193.5 l-3 -140 q-5 -84 0.5 -136.5 q5.5 -52.5 -19 -66.5 q-24.5 -14 -47 7 q-22.5 21 -19.5 73 l3 154 q4 99 4 98 Z" /><glyph glyph-name="" unicode="v" d="M52 919 q-5 36 5 52.5 q10 16.5 30.5 21 q20.5 4.5 38.5 -9.5 q16 -14 23 -59 q7 -45 21 -107 l27 -120 q20 -92 29 -122.5 q9 -30.5 52 -145.5 l55 -150 q17 -46 58.5 -133.5 q41.5 -87.5 56.5 -84.5 q12 1 30 39 q18 38 29.5 61 q11.5 23 64 112 q52.5 89 102 164.5 q49.5 75.5 110.5 160 q61 84.5 94 126.5 l35 44 q24 30 37 35.5 q13 5.5 29 6 q16 0.5 27 -15 q11 -15.5 11 -30.5 q-1 -15 -9 -30.5 q-8 -15.5 -40 -46 q-32 -30.5 -75 -79.5 q-43 -49 -80 -102 q-37 -53 -95.5 -147 q-58.5 -94 -103 -167.5 q-44.5 -73.5 -68.5 -133.5 l-34 -90 q-9 -21 -20.5 -33.5 q-11.5 -12.5 -32 -14 q-20.5 -1.5 -40.5 16.5 q-10 8 -34.5 44 q-24.5 36 -90.5 182 q-66 146 -85.5 195 q-19.5 49 -52.5 166 l-53 189 q-28 92 -37 129.5 q-9 37.5 -14 76.5 Z" /><glyph glyph-name="" unicode="w" d="M920 416 q-19 15 -69.5 68.5 q-50.5 53.5 -77.5 86 q-27 32.5 -35 31.5 q-8 -2 -22 -29 q-14 -27 -33.5 -69 q-19.5 -42 -74.5 -169.5 q-55 -127.5 -78 -175 q-23 -47.5 -48.5 -98.5 q-25.5 -51 -40.5 -78 q-15 -27 -36 -36 q-21 -9 -43 1 q-19 7 -44 46 q-25 39 -78.5 198.5 q-53.5 159.5 -78 242.5 q-24.5 83 -59.5 234 l-46 194 q-14 57 -5.5 79.5 q8.5 22.5 27.5 31.5 q19 9 38 -5 q6 -5 14 -21 q8 -16 17 -57 l20 -103 q9 -50 30 -142 q21 -92 51 -201 q30 -109 53.5 -176 q23.5 -67 46 -122.5 q22.5 -55.5 37.5 -54.5 q14 0 32.5 36 q18.5 36 42.5 87 l44 95 q19 42 66.5 156 q47.5 114 68.5 169 q21 55 30 72.5 q9 17.5 16.5 29 q7.5 11.5 19 18.5 q11.5 7 28.5 2 q10 -4 24 -21 l30 -40 q8 -12 33.5 -39.5 q25.5 -27.5 40.5 -41.5 l57 -56 q33 -34 49 -32 q16 1 34 26 q18 25 51 76.5 q33 51.5 63 103.5 l89 160 q12 19 24.5 37 q12.5 18 26.5 27.5 q14 9.5 35.5 7 q21.5 -2.5 24 -29.5 q2.5 -27 -5.5 -44 q-6 -13 -18 -31 l-36 -54 q-24 -36 -65.5 -108.5 q-41.5 -72.5 -81.5 -144 q-40 -71.5 -74 -117 q-34 -45.5 -60 -45 q-26 0.5 -54 24.5 Z" /><glyph glyph-name="" unicode="y" d="M671 250 q-32 33 -48 51 q-16 18 -81.5 95.5 q-65.5 77.5 -113 131.5 q-47.5 54 -75.5 86 l-76 83 q-29 30 -56 61 q-27 31 -69 82 l-49 58 q-18 20 -22 29.5 q-4 9.5 11.5 31.5 q15.5 22 36.5 24.5 q21 2.5 28 -5.5 l54 -63 l45 -54 q10 -13 83 -92 l131 -148 q94 -106 151 -174 q57 -68 75 -84 l34 -33 l19 -21 l386 307 l161 127 q16 13 30 16 q14 3 30 -15 q16 -18 14.5 -37.5 q-1.5 -19.5 -8.5 -25.5 l-167 -131 l-295 -228 l-186 -146 q-154 -121 -183 -144 l-196 -156 q-126 -98 -161.5 -128 q-35.5 -30 -55.5 -44 q-20 -14 -35 -14.5 q-15 -0.5 -26 9.5 q-11 10 -6 36 q4 19 36.5 48 q32.5 29 137.5 111 q105 82 134 105 l129 104 q41 33 103 83 l40 32 l40 32 l0 0 Z" /></font>
</defs>
</svg>
